<svg width="80" height="80" viewBox="0 0 80 80" fill="none" xmlns="http://www.w3.org/2000/svg">
<g clip-path="url(#clip0_5592_37024)">
<path d="M41.3893 0.235565C40.0422 0.078196 38.6832 -0.000488281 37.3188 -0.000488281C27.4213 -0.000488281 17.9292 4.16837 10.9306 11.5886C3.93199 19.0088 0 29.0719 0 39.5665C0 47.3927 2.18864 55.042 6.2896 61.5489C10.3899 68.0558 16.2183 73.1267 23.0374 76.1209C28.8525 78.6754 35.166 79.621 41.388 78.8974C37.8973 78.4913 34.4596 77.5611 31.1796 76.1209C24.3606 73.1267 18.5322 68.0558 14.4319 61.5489C10.3309 55.042 8.14229 47.3927 8.14229 39.5665C8.14229 29.0719 12.0743 19.0088 19.0729 11.5886C25.1047 5.19267 32.9893 1.2135 41.3893 0.235565Z" fill="#FFC048"/>
<path d="M42.3891 0.227958C41.0098 0.075986 39.6183 0 38.2214 0C32.1324 0 26.1932 1.45323 20.8674 4.16838H29.2042C33.3061 2.0774 37.7716 0.734079 42.3891 0.227958Z" fill="#FFD473"/>
<path d="M24.5887 6.94729H16.252C14.4615 8.20513 12.7715 9.62308 11.203 11.1917C10.7884 11.6069 10.3834 12.0302 9.9899 12.4617H18.3266C18.7201 12.0302 19.1245 11.6069 19.5397 11.1917C21.1083 9.62308 22.7983 8.20513 24.5887 6.94729Z" fill="#FFD473"/>
<path d="M16.0226 15.2406H7.68589C6.37514 16.9829 5.22042 18.8282 4.23125 20.755H12.568C13.5572 18.8282 14.7119 16.9829 16.0226 15.2406Z" fill="#FFD473"/>
<path d="M11.2789 23.534H2.9422C2.1993 25.321 1.59141 27.165 1.126 29.0484H9.46275C9.92816 27.1636 10.5354 25.321 11.2789 23.534Z" fill="#FFD473"/>
<path d="M8.88471 31.8273H0.548637C0.241301 33.6401 0.0635481 35.4827 0.0214844 37.3417H8.00069C8.12349 37.3417 8.2429 37.358 8.3562 37.3878C8.39623 35.514 8.57534 33.655 8.88471 31.8273Z" fill="#FFD473"/>
<path d="M8.38944 40.065C8.26597 40.1003 8.1357 40.1206 8.00069 40.1206H0.0594774C0.107647 41.0854 0.192453 42.0474 0.313216 43.0026C0.42516 43.886 0.566955 44.7639 0.739959 45.635H9.07603C8.71306 43.8032 8.48036 41.9416 8.38944 40.065Z" fill="#FFD473"/>
<path d="M9.73548 48.4139H1.39941C1.92181 50.2987 2.58805 52.1427 3.39404 53.9283H11.7308C10.9248 52.1427 10.2579 50.2987 9.73548 48.4139Z" fill="#FFD473"/>
<path d="M13.1236 56.7073H4.78689C5.30183 57.6381 5.8568 58.5499 6.45112 59.4387C7.09293 60.3994 7.77681 61.3275 8.49867 62.2217H16.8347C16.1129 61.3275 15.4297 60.3994 14.7879 59.4387C14.1936 58.5499 13.6386 57.6381 13.1236 56.7073Z" fill="#FFD473"/>
<path d="M19.3131 65.0006H10.977C13.0361 67.0956 15.3313 68.9451 17.8158 70.515H26.1525C23.6681 68.9451 21.3729 67.0956 19.3131 65.0006Z" fill="#FFD473"/>
<path d="M31.422 73.2939H23.0846C23.2556 73.3672 23.4272 73.4405 23.5995 73.511C29.5536 75.9779 36.0178 76.891 42.3884 76.1922C38.8144 75.8001 35.2939 74.9018 31.9356 73.511C31.764 73.4405 31.5923 73.3672 31.422 73.2939Z" fill="#FFD473"/>
<path d="M41.8618 0C49.2428 0 56.458 2.32056 62.595 6.66823C68.7321 11.0159 73.5153 17.1954 76.3399 24.4253C79.1645 31.6552 79.9035 39.6108 78.4636 47.2861C77.0236 54.9613 73.4693 62.0115 68.2502 67.545C63.0311 73.0785 56.3815 76.8469 49.1423 78.3736C41.9032 79.9003 34.3996 79.1168 27.5805 76.122C20.7614 73.1273 14.933 68.0559 10.8323 61.5492C6.73168 55.0424 4.54297 47.3925 4.54297 39.5669C4.54297 29.0731 8.47476 19.0091 15.4734 11.5889C22.472 4.16865 31.9642 0 41.8618 0V0Z" fill="#FFDB5D"/>
<path d="M42.0247 7.91409C47.963 7.91409 53.768 9.78109 58.7055 13.279C63.643 16.7769 67.4914 21.7486 69.7639 27.5654C72.0364 33.3822 72.631 39.7828 71.4725 45.9579C70.3139 52.1329 67.4544 57.8051 63.2553 62.2571C59.0563 66.7091 53.7064 69.7409 47.8822 70.9692C42.058 72.1975 36.021 71.5671 30.5347 69.1577C25.0484 66.7483 20.3592 62.6681 17.0601 57.4332C13.7609 52.1982 12 46.0435 12 39.7475C12 31.3047 15.1633 23.2078 20.794 17.2379C26.4247 11.268 34.0616 7.91409 42.0247 7.91409V7.91409Z" fill="white"/>
<path d="M44.0773 7.91425C38.5416 7.91425 33.1301 9.78124 28.5274 13.2791C23.9246 16.777 20.3371 21.7487 18.2187 27.5655C16.1003 33.3823 15.546 39.7829 16.626 45.958C17.7059 52.1331 20.3716 57.8053 24.286 62.2572C28.2003 66.7092 33.1875 69.7411 38.6169 70.9694C44.0462 72.1977 49.6739 71.5672 54.7883 69.1579C59.9026 66.7485 64.2739 62.6683 67.3494 57.4333C70.4249 52.1983 72.0664 46.0437 72.0664 39.7476C72.0664 31.3049 69.1176 23.2079 63.8686 17.238C58.6196 11.2681 51.5005 7.91425 44.0773 7.91425V7.91425Z" fill="#EDA73D"/>
<path d="M40.6859 7.91425C35.0159 7.91425 29.4733 9.78124 24.759 13.2791C20.0446 16.777 16.3702 21.7487 14.2004 27.5655C12.0306 33.3823 11.4629 39.7829 12.5691 45.958C13.6752 52.1331 16.4055 57.8053 20.4148 62.2572C24.424 66.7092 29.5321 69.7411 35.0931 70.9694C40.6541 72.1977 46.4182 71.5672 51.6565 69.1579C56.8948 66.7485 61.3721 62.6683 64.5221 57.4333C67.6722 52.1983 69.3535 46.0437 69.3535 39.7476C69.3535 31.3049 66.3332 23.2079 60.957 17.238C55.5807 11.2681 48.289 7.91425 40.6859 7.91425V7.91425Z" fill="#FDC251"/>
<path d="M40.6191 21.4918C50.5574 21.4921 58.614 29.5486 58.6143 39.4869C58.6143 49.4254 50.5576 57.4828 40.6191 57.483C30.6805 57.483 22.623 49.4256 22.623 39.4869C22.6233 29.5485 30.6806 21.4918 40.6191 21.4918ZM35.3154 35.3346C32.891 35.3346 30.9259 37.2998 30.9258 39.7242C30.9258 42.1488 32.8909 44.1139 35.3154 44.1139C37.7399 44.1139 39.7051 42.1487 39.7051 39.7242C39.705 37.2998 37.7399 35.3346 35.3154 35.3346ZM46.1934 35.3346C43.7691 35.3348 41.8038 37.3 41.8037 39.7242C41.8037 42.1486 43.7691 44.1136 46.1934 44.1139C48.6179 44.1139 50.584 42.1488 50.584 39.7242C50.5839 37.2998 48.6178 35.3346 46.1934 35.3346Z" fill="#8F5B34"/>
</g>
<defs>
<clipPath id="clip0_5592_37024">
<rect width="79.1803" height="79.1803" rx="3.50081" fill="white"/>
</clipPath>
</defs>
</svg>
